<svg width="56" height="56" viewBox="0 0 56 56" fill="none" xmlns="http://www.w3.org/2000/svg">
<g clip-path="url(#clip0_385_36)">
<path d="M46.9981 20.4938C46.9978 19.7875 46.8441 19.1635 46.5336 18.628C46.2286 18.1012 45.7715 17.6599 45.1588 17.3108C40.0999 14.4423 35.0361 11.5825 29.979 8.711C28.6156 7.93707 27.2936 7.96521 25.9403 8.75038C23.9267 9.91821 13.8454 15.5981 10.8414 17.3092C9.60429 18.0136 9.00223 19.0914 9.00193 20.4924C9 26.2613 9.00193 32.0299 9 37.7989C9.0003 38.4896 9.1474 39.1015 9.44427 39.6291C9.74946 40.1716 10.2127 40.6252 10.8397 40.9822C13.844 42.6932 23.9266 48.3727 25.9397 49.5408C27.2936 50.3265 28.6156 50.3545 29.9794 49.5802C35.0367 46.7086 40.1008 43.849 45.1604 40.9804C45.7874 40.6236 46.2507 40.1697 46.5559 39.6277C46.8523 39.1001 46.9997 38.4881 47 37.7973C47 37.7973 47 26.2628 46.9981 20.4938Z" fill="#A9B9CB"/>
<path d="M29.9447 8.74866C28.5835 7.97662 27.2638 8.00477 25.9127 8.78789C23.9024 9.95266 13.8376 15.6178 10.8384 17.3245C9.60325 18.027 9.00223 19.1021 9.00193 20.4995C9 26.2533 9.00193 32.007 9 37.761C9.0003 38.45 9.1471 39.0603 9.44353 39.5864C9.74827 40.1276 10.2108 40.58 10.8368 40.936C11.8335 41.5021 12.8309 42.067 13.8291 42.6306L41.6006 15.3463C37.7148 13.148 33.828 10.9515 29.9447 8.74866Z" fill="#7F8B99"/>
<path d="M31.9272 26.5161L37.8408 26.5571C37.8408 24.1364 35.3467 18.2083 28.1963 18.2083C23.6406 18.2083 17.5161 21.0538 17.5161 29.2347C17.5161 37.4155 23.52 40.0833 28.1963 40.0833C35.7692 40.0833 37.5791 34.935 37.5791 32.0257L31.9374 31.7088C31.9374 31.7088 32.0884 35.0739 28.1662 35.0739C24.5458 35.0739 23.9417 30.7167 23.9417 29.2347C23.9417 26.982 24.757 23.3658 28.1662 23.3658C31.5755 23.3658 31.9272 26.5161 31.9272 26.5161Z" fill="white"/>
</g>
<circle cx="28" cy="28" r="22" fill="#C4C4C4" fill-opacity="0.4"/>
<path d="M28 0C34.2893 7.49995e-08 40.3955 2.11744 45.3346 6.01113C50.2738 9.90481 53.7581 15.348 55.2264 21.4635C56.6946 27.5791 56.0611 34.0109 53.428 39.7225C50.7949 45.4341 46.3156 50.0929 40.7117 52.9482C35.1079 55.8035 28.7059 56.689 22.5375 55.462C16.369 54.235 10.7932 50.967 6.70863 46.1845C2.62404 41.4021 0.268503 35.3838 0.0215867 29.0993C-0.22533 22.8148 1.65075 16.6302 5.34753 11.542L8.81409 14.0606C5.68303 18.3701 4.09405 23.6083 4.30318 28.931C4.51231 34.2538 6.50738 39.3511 9.96689 43.4017C13.4264 47.4523 18.1489 50.2202 23.3734 51.2594C28.5979 52.2986 34.0202 51.5487 38.7664 49.1303C43.5127 46.712 47.3066 42.7661 49.5367 37.9286C51.7668 33.091 52.3034 27.6435 51.0598 22.4638C49.8163 17.2841 46.8652 12.674 42.6819 9.37613C38.4986 6.0783 33.3269 4.2849 28 4.2849V0Z" fill="#3B5999"/>
<defs>
<clipPath id="clip0_385_36">
<rect width="38" height="42" fill="white" transform="translate(9 8)"/>
</clipPath>
</defs>
</svg>
