<svg width="56" height="56" viewBox="0 0 56 56" fill="none" xmlns="http://www.w3.org/2000/svg">
<path d="M41.8439 14.703L35.6867 11.217C35.3389 11.0202 34.9477 10.9553 34.5672 11.0313C34.1868 11.1073 33.8358 11.3206 33.5629 11.6414L13.4061 33.2515C12.864 33.8328 12.8647 34.8364 13.4075 35.4168L15.054 37.1767C15.2691 37.4067 15.5459 37.5409 15.8363 37.5561C16.1267 37.5713 16.4125 37.4665 16.6442 37.2599L40.9174 15.6073C41.7318 14.881 42.9014 15.5639 42.9014 16.7658V16.6817C42.9014 16.2683 42.8022 15.8633 42.6151 15.5132C42.428 15.1632 42.1607 14.8823 41.8439 14.703Z" fill="#0065A9"/>
<path d="M41.8439 42.2541L35.6867 45.7401C35.3389 45.9369 34.9477 46.0018 34.5673 45.9258C34.1868 45.8497 33.8358 45.6365 33.5629 45.3157L13.4061 23.7057C12.864 23.1244 12.8647 22.1207 13.4075 21.5405L15.054 19.7804C15.2691 19.5505 15.5459 19.4163 15.8363 19.4011C16.1268 19.3859 16.4125 19.4907 16.6442 19.6973L40.9174 41.3498C41.7318 42.0761 42.9014 41.3932 42.9014 40.1912V40.2754C42.9014 40.6888 42.8021 41.0938 42.6151 41.4439C42.428 41.7939 42.1607 42.0748 41.8439 42.2541Z" fill="#007ACC"/>
<path d="M35.6672 45.7429C35.3194 45.9396 34.9282 46.0044 34.5477 45.9283C34.1672 45.8522 33.8162 45.639 33.5432 45.3181C34.2324 46.1283 35.4109 45.5544 35.4109 44.4082V12.5534C35.4109 11.4072 34.2324 10.8333 33.5432 11.6437C33.8162 11.3227 34.1671 11.1095 34.5477 11.0333C34.9282 10.9572 35.3194 11.022 35.6672 11.2187L41.8234 14.6998C42.1404 14.8791 42.4079 15.1599 42.5951 15.5101C42.7823 15.8602 42.8817 16.2654 42.8817 16.679V40.2829C42.8817 41.1269 42.4703 41.8963 41.8234 42.2621L35.6672 45.743V45.7429Z" fill="#1F9CF0"/>
<path d="M34.1908 45.8078C34.4286 45.9168 34.6829 45.9671 34.9379 45.9556C35.1929 45.944 35.4432 45.8709 35.6732 45.7408L41.8255 42.2597C42.1424 42.0803 42.4098 41.7994 42.5969 41.4493C42.7841 41.0992 42.8833 40.694 42.8833 40.2805V16.6767C42.8833 16.2632 42.7841 15.8581 42.597 15.508C42.4099 15.1579 42.1425 14.877 41.8256 14.6976L35.6731 11.2163C35.3254 11.0197 34.9344 10.9549 34.5541 11.031C34.1738 11.1072 33.823 11.3204 33.5503 11.6413L21.7723 24.2766L16.6418 19.6973C16.4104 19.4908 16.1248 19.386 15.8345 19.4012C15.5443 19.4164 15.2677 19.5505 15.0528 19.7804L13.4073 21.5405C12.8648 22.1208 12.8642 23.1245 13.4059 23.7057L17.8552 28.4786L13.4059 33.2514C12.8642 33.8328 12.8648 34.8364 13.4073 35.4168L15.0528 37.1767C15.2677 37.4066 15.5442 37.5408 15.8345 37.556C16.1248 37.5712 16.4104 37.4665 16.6418 37.2599L21.7723 32.6806L33.5503 45.3157C33.7325 45.5302 33.9506 45.6977 34.1908 45.8078ZM35.417 20.5017L26.4801 28.4786L35.417 36.4553V20.5018V20.5017Z" fill="url(#paint0_linear_594_3)" fill-opacity="0.25"/>
<circle cx="28" cy="28" r="22" fill="#C4C4C4" fill-opacity="0.4"/>
<path d="M28 0C33.1638 6.1578e-08 38.2271 1.42798 42.63 4.12608C47.0328 6.82417 50.6039 10.6873 52.9482 15.2883C55.2925 19.8893 56.3188 25.0489 55.9137 30.1969C55.5085 35.3448 53.6877 40.2804 50.6525 44.458C47.6173 48.6356 43.4859 51.8925 38.7151 53.8686C33.9444 55.8447 28.7201 56.4631 23.6198 55.6553C18.5196 54.8475 13.7421 52.645 9.81546 49.2914C5.88885 45.9377 2.96613 41.5636 1.37042 36.6525L5.4456 35.3284C6.79712 39.4879 9.27257 43.1927 12.5983 46.0331C15.924 48.8735 19.9704 50.7389 24.2901 51.4231C28.6099 52.1073 33.0347 51.5836 37.0754 49.9099C41.1161 48.2362 44.6152 45.4777 47.1859 41.9394C49.7567 38.4011 51.2988 34.2208 51.642 29.8607C51.9851 25.5006 51.1159 21.1305 49.1303 17.2336C47.1447 13.3367 44.1202 10.0648 40.3911 7.77955C36.662 5.49436 32.3736 4.2849 28 4.2849V0Z" fill="#3B5999"/>
<defs>
<linearGradient id="paint0_linear_594_3" x1="27.9416" y1="11" x2="27.9416" y2="45.9572" gradientUnits="userSpaceOnUse">
<stop stop-color="white"/>
<stop offset="1" stop-color="white" stop-opacity="0"/>
</linearGradient>
</defs>
</svg>
