<svg width="56" height="56" viewBox="0 0 56 56" fill="none" xmlns="http://www.w3.org/2000/svg">
<path d="M27.3604 9.0105C19.0031 9.0105 19.5249 13.0899 19.5249 13.0899L19.5342 17.3163H27.5094V18.5852H16.3666C16.3666 18.5852 11.0188 17.9025 11.0188 27.3941C11.0188 36.886 15.6865 36.5494 15.6865 36.5494H18.4722V32.1448C18.4722 32.1448 18.322 26.8908 23.0653 26.8908H30.9753C30.9753 26.8908 35.4193 26.9716 35.4193 22.0563V13.929C35.4193 13.929 36.0943 9.0105 27.3604 9.0105ZM22.9629 11.8527C23.1513 11.8525 23.338 11.8941 23.5121 11.9752C23.6863 12.0563 23.8445 12.1753 23.9777 12.3253C24.111 12.4753 24.2167 12.6534 24.2887 12.8494C24.3608 13.0454 24.3978 13.2555 24.3976 13.4676C24.3978 13.6797 24.3608 13.8898 24.2887 14.0859C24.2167 14.2819 24.111 14.46 23.9777 14.61C23.8445 14.76 23.6863 14.8789 23.5121 14.96C23.338 15.0411 23.1513 15.0828 22.9629 15.0826C22.7744 15.0828 22.5878 15.0411 22.4136 14.96C22.2395 14.8789 22.0812 14.76 21.948 14.61C21.8147 14.46 21.709 14.2819 21.637 14.0859C21.565 13.8898 21.528 13.6797 21.5281 13.4676C21.528 13.2555 21.565 13.0454 21.637 12.8494C21.709 12.6534 21.8147 12.4753 21.948 12.3253C22.0812 12.1753 22.2395 12.0563 22.4136 11.9752C22.5878 11.8941 22.7744 11.8525 22.9629 11.8527Z" fill="url(#paint0_linear_594_2)"/>
<path d="M27.5975 45.8731C35.9548 45.8731 35.433 41.7937 35.433 41.7937L35.4237 37.5674H27.4484V36.2985H38.5912C38.5912 36.2985 43.939 36.9812 43.939 27.4893C43.939 17.9976 39.2713 18.3342 39.2713 18.3342H36.4856V22.7387C36.4856 22.7387 36.6358 27.9927 31.8924 27.9927H23.9825C23.9825 27.9927 19.5385 27.9119 19.5385 32.8274V40.9547C19.5385 40.9547 18.8636 45.8731 27.5974 45.8731H27.5975ZM31.9951 43.0312C31.8066 43.0314 31.62 42.9898 31.4458 42.9087C31.2717 42.8276 31.1134 42.7087 30.9802 42.5587C30.8469 42.4087 30.7412 42.2305 30.6692 42.0345C30.5972 41.8385 30.5602 41.6284 30.5603 41.4163C30.5601 41.2041 30.5971 40.994 30.6692 40.798C30.7412 40.602 30.8469 40.4238 30.9801 40.2738C31.1134 40.1238 31.2716 40.0049 31.4458 39.9238C31.6199 39.8427 31.8066 39.801 31.9951 39.8012C32.1835 39.801 32.3702 39.8427 32.5443 39.9237C32.7184 40.0048 32.8767 40.1238 33.0099 40.2738C33.1432 40.4238 33.2489 40.6019 33.3209 40.7979C33.393 40.9939 33.43 41.204 33.4298 41.4161C33.43 41.6283 33.393 41.8384 33.3209 42.0344C33.2489 42.2304 33.1432 42.4085 33.0099 42.5585C32.8767 42.7085 32.7184 42.8275 32.5443 42.9085C32.3702 42.9896 32.1835 43.0313 31.9951 43.0311V43.0312Z" fill="url(#paint1_linear_594_2)"/>
<circle cx="28" cy="28" r="22" fill="#C4C4C4" fill-opacity="0.4"/>
<path d="M16.6114 2.42073C10.2724 5.24303 5.20713 10.3186 2.39768 16.6633C-0.411762 23.008 -0.765257 30.1699 1.40573 36.7604C3.57672 43.351 8.11753 48.9006 14.1478 52.3334C20.1781 55.7663 27.2682 56.8377 34.0435 55.34C40.8189 53.8423 46.7967 49.8822 50.8182 44.2274C54.8396 38.5727 56.6182 31.6261 55.8089 24.7346C54.9997 17.843 51.6604 11.4974 46.4384 6.92807C41.2164 2.35871 34.4837 -0.10889 27.5457 0.00368522L27.6152 4.28802C33.4915 4.19267 39.1938 6.28265 43.6167 10.1528C48.0396 14.0229 50.8679 19.3974 51.5533 25.2343C52.2387 31.0712 50.7323 36.9547 47.3263 41.7441C43.9202 46.5335 38.8572 49.8876 33.1187 51.1561C27.3802 52.4246 21.3751 51.5171 16.2676 48.6096C11.1602 45.7021 7.31427 41.0018 5.47551 35.4198C3.63675 29.8378 3.93615 23.7719 6.31566 18.3982C8.69517 13.0244 12.9853 8.72558 18.3542 6.33518L16.6114 2.42073Z" fill="#3B5999"/>
<defs>
<linearGradient id="paint0_linear_594_2" x1="14.1824" y1="12.3261" x2="32.3967" y2="28.3463" gradientUnits="userSpaceOnUse">
<stop stop-color="#387EB8"/>
<stop offset="1" stop-color="#366994"/>
</linearGradient>
<linearGradient id="paint1_linear_594_2" x1="24.196" y1="24.0003" x2="43.6504" y2="40.3389" gradientUnits="userSpaceOnUse">
<stop stop-color="#FFE052"/>
<stop offset="1" stop-color="#FFC331"/>
</linearGradient>
</defs>
</svg>
