<svg width="56" height="56" viewBox="0 0 56 56" fill="none" xmlns="http://www.w3.org/2000/svg">
<circle cx="28" cy="28" r="22" fill="#C4C4C4" fill-opacity="0.4"/>
<path d="M17 15L19.2768 42L29.5 45L39.7196 42.0019L42 15H17Z" fill="#2196F3"/>
<path d="M37.1321 23.8294L36.8446 27.2213L35.9768 37.3894L29.5 39.27L29.4946 39.2719L23.0214 37.3894L22.5696 32.0719H25.7411L25.9768 34.83L29.4964 35.8275L29.4982 35.8256L33.0232 34.8281L33.5036 30.2325L22.4178 30.2644L22.1036 27.1219L33.7696 26.9775L34.0053 23.6138L21.7911 23.6494L21.5857 20.52H29.5H37.4143L37.1321 23.8294Z" fill="#FAFAFA"/>
<path d="M28 0C33.5379 6.60385e-08 38.9514 1.64217 43.556 4.71885C48.1605 7.79553 51.7494 12.1685 53.8686 17.2849C55.9879 22.4012 56.5424 28.0311 55.462 33.4625C54.3816 38.894 51.7149 43.8831 47.799 47.799C43.8831 51.7149 38.894 54.3816 33.4625 55.462C28.0311 56.5424 22.4012 55.9879 17.2849 53.8686C12.1685 51.7494 7.79553 48.1605 4.71885 43.556C1.64217 38.9514 -1.32077e-07 33.5379 0 28H4.2849C4.2849 32.6904 5.67577 37.2755 8.28162 41.1754C10.8875 45.0753 14.5913 48.115 18.9246 49.9099C23.258 51.7048 28.0263 52.1745 32.6266 51.2594C37.2269 50.3444 41.4525 48.0857 44.7691 44.7691C48.0857 41.4525 50.3444 37.2269 51.2594 32.6266C52.1745 28.0263 51.7048 23.258 49.9099 18.9246C48.115 14.5913 45.0753 10.8875 41.1754 8.28162C37.2755 5.67577 32.6904 4.2849 28 4.2849V0Z" fill="#3B5999"/>
</svg>
