<svg width="56" height="56" viewBox="0 0 56 56" fill="none" xmlns="http://www.w3.org/2000/svg">
<circle cx="28" cy="28" r="22" fill="#C4C4C4" fill-opacity="0.4"/>
<g clip-path="url(#clip0_288_138)">
<path d="M23.001 45C25.7604 45 28 42.76 28 40V35H23.001C20.2415 35 18.002 37.24 18.002 40C18.002 42.76 20.2415 45 23.001 45Z" fill="#0ACF83"/>
<path d="M18.002 30C18.002 27.24 20.2415 25 23.001 25H28V35H23.001C20.2415 35 18.002 32.76 18.002 30Z" fill="#A259FF"/>
<path d="M18.01 20C18.01 17.24 20.2496 15 23.009 15H28.008V25H23.009C20.2496 25 18.01 22.76 18.01 20Z" fill="#F24E1E"/>
<path d="M28 15H32.999C35.7584 15 37.998 17.24 37.998 20C37.998 22.76 35.7584 25 32.999 25H28V15Z" fill="#FF7262"/>
<path d="M37.998 30C37.998 32.76 35.7584 35 32.999 35C30.2396 35 28 32.76 28 30C28 27.24 30.2396 25 32.999 25C35.7584 25 37.998 27.24 37.998 30Z" fill="#1ABCFE"/>
</g>
<path d="M28 0C33.913 7.0512e-08 39.6743 1.87194 44.458 5.34752C49.2417 8.82311 52.8024 13.7239 54.6296 19.3475C56.4568 24.9711 56.4568 31.0289 54.6296 36.6525C52.8024 42.2761 49.2417 47.1769 44.458 50.6525L41.9394 47.1859C45.9911 44.2422 49.0068 40.0914 50.5544 35.3284C52.102 30.5653 52.102 25.4347 50.5544 20.6716C49.0068 15.9086 45.9911 11.7578 41.9394 8.81408C37.8877 5.87037 33.0081 4.2849 28 4.2849V0Z" fill="#3B5999"/>
<defs>
<clipPath id="clip0_288_138">
<rect width="20" height="30" fill="white" transform="translate(18 15)"/>
</clipPath>
</defs>
</svg>
