<svg width="64" height="64" viewBox="0 0 64 64" fill="none" xmlns="http://www.w3.org/2000/svg">
<path d="M57.664 7.506C50.815 0.658 38.287 2.079 29.686 10.683C24.645 15.723 22.09 22.104 22.198 27.908C21.792 34.124 20.678 40.123 17.737 43.601L16.72 42.583L15.151 44.151L15.586 44.586L5.037 55.135L4.602 54.7L3.035 56.267L8.765 62L10.334 60.433L9.899 59.999L20.449 49.45L20.884 49.884L22.45 48.317L21.573 47.435C25.049 44.496 31.04 43.383 37.25 42.974C43.056 43.087 49.443 40.533 54.488 35.488C63.095 26.884 64.515 14.356 57.664 7.506ZM58.846 18.677L57.408 17.241L58.524 16.127C58.705 16.955 58.811 17.807 58.846 18.677ZM58.059 14.507L56.367 16.2L53.193 13.025L55.711 10.506C56.7423 11.6773 57.5393 13.0355 58.059 14.507ZM28.85 28.927L32.832 24.943L36.009 28.119L32.025 32.101L28.85 28.927ZM30.985 33.147L28.462 35.667C27.4296 34.4954 26.6324 33.136 26.114 31.663L27.807 29.972L30.985 33.147ZM43.947 13.831L47.927 9.849L51.102 13.026L47.119 17.009L43.947 13.831ZM50.294 22.269L46.309 26.261L43.13 23.087L47.119 19.096L50.294 22.269ZM46.076 18.052L42.087 22.041L38.912 18.866L42.901 14.876L46.076 18.052ZM41.043 23.087L37.053 27.076L33.876 23.899L37.867 19.91L41.043 23.087ZM37.867 17.822L34.7 14.654L38.689 10.664L41.854 13.831L37.867 17.822ZM36.824 18.867L32.832 22.855L29.666 19.687L33.653 15.696L36.824 18.867ZM37.053 29.165L40.227 32.338L36.245 36.322L33.072 33.145L37.053 29.165ZM38.1 28.119L42.087 24.13L45.262 27.305L41.27 31.295L38.1 28.119ZM46.309 28.348L49.471 31.517L45.481 35.506L42.312 32.338L46.309 28.348ZM47.35 27.304L51.339 23.315L54.508 26.482L50.519 30.472L47.35 27.304ZM48.164 18.053L52.148 14.069L55.322 17.242L51.343 21.226L48.164 18.053ZM54.668 9.462L52.148 11.982L48.97 8.805L50.661 7.114C52.1353 7.63151 53.4959 8.42876 54.668 9.462ZM49.042 6.646L47.928 7.76L46.493 6.325C47.363 6.361 48.215 6.466 49.042 6.646ZM44.451 6.371L46.883 8.804L42.902 12.787L39.732 9.62L42.753 6.599C43.322 6.494 43.889 6.419 44.451 6.371ZM39.894 7.37L38.69 8.576L38.177 8.063C38.7386 7.80622 39.3115 7.57498 39.894 7.37ZM36.788 8.761L37.644 9.618L33.653 13.609L32.172 12.124C33.5629 10.8131 35.1138 9.68314 36.788 8.761ZM31.127 13.17L32.611 14.654L28.621 18.643L27.764 17.785C28.6864 16.1113 29.8163 14.5607 31.127 13.17ZM27.065 19.175L27.577 19.688L26.371 20.894C26.573 20.316 26.803 19.744 27.065 19.175ZM25.6 23.75L28.621 20.73L31.789 23.898L27.807 27.879L25.371 25.444C25.42 24.884 25.495 24.318 25.6 23.75ZM26.761 28.926L25.647 30.04C25.4655 29.2014 25.3584 28.3484 25.327 27.491L26.761 28.926ZM22.487 42.687C21.393 41.593 22.817 37.353 23.803 34.832C24.487 36.231 25.372 37.531 26.505 38.664C27.639 39.798 28.94 40.684 30.342 41.369C27.821 42.354 23.579 43.779 22.487 42.687ZM29.506 36.712L32.026 34.191L35.201 37.367L33.506 39.058C32.0348 38.5392 30.6769 37.7428 29.506 36.712ZM35.129 39.524L36.244 38.409L37.68 39.846C36.8219 39.8139 35.9682 39.7061 35.129 39.524ZM39.723 39.8L37.287 37.364L41.269 33.382L44.439 36.549L41.417 39.573C40.8564 39.6763 40.291 39.752 39.723 39.8ZM44.275 38.802L45.48 37.597L45.994 38.109C45.425 38.368 44.852 38.599 44.275 38.802ZM47.387 37.407L46.53 36.549L50.519 32.561L52.002 34.044C50.6117 35.3552 49.0611 36.4852 47.387 37.407ZM53.046 33L51.562 31.517L55.551 27.527L56.41 28.384C55.487 30.0579 54.3568 31.6087 53.046 33ZM57.108 26.995L56.595 26.483L57.8 25.278C57.5958 25.8606 57.3649 26.4336 57.108 26.995ZM58.572 22.417L55.551 25.439L52.385 22.269L56.367 18.287L58.801 20.723C58.7524 21.2911 58.6759 21.8564 58.572 22.417ZM13 24C15.938 24 18.701 22.856 20.779 20.779C22.857 18.701 24 15.938 24 13C24 10.062 22.854 7.299 20.776 5.222C18.699 3.145 15.937 2 12.999 2C10.061 2 7.3 3.144 5.223 5.222C3.145 7.299 2 10.062 2 13C2 15.938 3.144 18.702 5.222 20.779C6.24118 21.8034 7.45337 22.6155 8.78845 23.1684C10.1235 23.7213 11.555 24.0039 13 24ZM19.481 6.519C21.1371 8.16967 22.0943 10.3945 22.154 12.732C19.8298 12.6329 17.6276 11.6643 15.984 10.018C14.3368 8.37462 13.3679 6.17176 13.27 3.847C15.6067 3.90693 17.8307 4.86371 19.481 6.519ZM6.519 6.518C8.02651 5.00298 10.0194 4.06725 12.148 3.875C12.2523 6.48787 13.337 8.96556 15.1862 10.8145C17.0353 12.6635 19.5131 13.748 22.126 13.852C21.9345 15.9813 20.9982 17.9748 19.482 19.482C17.9741 20.997 15.9809 21.9327 13.852 22.125C13.748 19.5126 12.6632 17.0353 10.814 15.187C8.96596 13.3374 6.48854 12.2526 3.876 12.149C4.06653 10.0194 5.00249 8.02527 6.519 6.518ZM10.017 15.982C11.6631 17.6262 12.6317 19.8286 12.731 22.153C10.3938 22.0936 8.16911 21.1372 6.518 19.482C4.86217 17.8313 3.90564 15.6063 3.847 13.269C6.17098 13.3682 8.37298 14.3364 10.017 15.982Z" fill="#EEEEEE"/>
</svg>
