<svg width="64" height="64" viewBox="0 0 64 64" fill="none" xmlns="http://www.w3.org/2000/svg">
<path d="M61.8629 12.932C58.0029 8.412 54.2199 7.27 54.2199 7.27C54.1119 7.317 54.0329 7.378 53.9389 7.432C52.4279 6.416 50.4969 5.112 49.6059 4.479C48.5619 3.735 46.2499 2 44.2409 2C43.1329 2 42.1179 2.527 41.4569 4.038C40.9839 5.118 40.3779 6.734 39.7819 8.39C39.6099 8.13246 39.359 7.9377 39.0669 7.835C38.1489 7.522 37.0479 8.175 36.6129 9.294C36.1759 10.409 36.5679 11.569 37.4879 11.878L37.5029 11.881C37.6559 12.248 37.9209 12.538 38.2739 12.699C38.2169 12.862 38.1629 13.017 38.1129 13.167C37.9847 13.0569 37.8377 12.9709 37.6789 12.913C36.7599 12.602 35.6599 13.255 35.2249 14.372C34.7879 15.489 35.1799 16.647 36.0999 16.958C36.1049 16.96 36.1109 16.959 36.1159 16.961C36.2199 17.213 36.3819 17.425 36.5809 17.59C35.5017 20.6941 34.3876 23.7859 33.2389 26.865C33.1869 26.84 33.1379 26.809 33.0829 26.79C32.1649 26.479 31.0639 27.132 30.6279 28.249C30.1919 29.366 30.5819 30.524 31.5029 30.835C31.5079 30.837 31.5129 30.836 31.5189 30.838C31.5499 30.913 31.5909 30.982 31.6299 31.05C31.4659 31.463 31.3029 31.869 31.1409 32.271C31.0317 32.1894 30.9111 32.1244 30.7829 32.078C29.8649 31.767 28.7639 32.42 28.3289 33.536C27.8929 34.653 28.2839 35.811 29.2039 36.122L29.2189 36.126C29.2629 36.23 29.3149 36.327 29.3749 36.419C29.2209 36.761 29.0689 37.091 28.9179 37.411C28.7897 37.3004 28.6422 37.2143 28.4829 37.157C27.5669 36.846 26.4639 37.499 26.0289 38.616C25.5949 39.731 25.9839 40.889 26.9019 41.2C26.0999 42.454 25.3949 43.182 24.8319 43.182C24.5259 43.182 24.2629 42.971 24.0479 42.518C20.7729 35.653 33.3349 27.838 29.5659 21.381C29.6379 20.951 29.5659 20.605 29.4629 20.369C28.8389 18.928 26.3899 18.625 24.4459 18.625C21.5729 18.625 17.7829 19.279 14.0499 20.421C7.99089 22.275 3.23589 25.014 2.21789 27.238C1.88789 27.957 1.99289 28.509 2.13889 28.845C2.55389 29.802 3.77489 30.251 5.11689 30.449C6.76289 31.644 8.94689 33.997 7.08489 37.32C-1.18211 52.07 5.23989 62 14.6099 62C18.1359 62 22.0789 60.586 25.8159 57.5C25.9729 57.4901 26.1251 57.4417 26.2589 57.359C26.4639 57.228 26.6629 57.078 26.8639 56.933C26.8809 56.97 26.8829 57.009 26.9059 57.044C26.9746 57.155 27.0646 57.2512 27.1707 57.3272C27.2769 57.4032 27.397 57.4574 27.5242 57.4867C27.6514 57.516 27.7832 57.5198 27.9118 57.4979C28.0405 57.476 28.1636 57.4288 28.2739 57.359C38.7959 50.681 42.3339 26.95 44.0329 15.546C44.2939 13.803 44.4989 12.426 44.6709 11.527C44.702 11.3664 44.6931 11.2006 44.6451 11.0442C44.5971 10.8878 44.5114 10.7456 44.3956 10.63C44.2797 10.5145 44.1373 10.4292 43.9808 10.3816C43.8242 10.334 43.6584 10.3255 43.4979 10.357L43.5519 10.06C44.3339 7.527 45.0729 6.146 45.8029 6.146C47.5969 6.146 51.1119 8.658 52.4949 9.619C52.4719 9.843 52.4769 9.992 52.4769 9.992C52.7839 10.521 54.3329 12.992 56.7499 13.685C56.7499 13.685 58.3229 12.033 60.6119 12.81C61.0039 12.946 62.4439 13.614 61.8629 12.932ZM3.04789 28.445C2.95289 28.225 2.97589 27.967 3.11789 27.657C3.87089 26.011 7.96689 23.326 14.3379 21.378C17.9819 20.264 21.6659 19.625 24.4449 19.625C26.7069 19.625 28.2419 20.053 28.5529 20.77C28.6479 20.99 28.6259 21.247 28.4829 21.557C27.7319 23.203 23.6359 25.889 17.2619 27.837C13.6189 28.951 9.93489 29.59 7.15589 29.59C4.89489 29.589 3.35789 29.162 3.04789 28.445ZM43.0169 8.501C42.9609 8.478 42.9109 8.442 42.8489 8.431C42.7205 8.40569 42.5884 8.40617 42.4602 8.4324C42.332 8.45863 42.2103 8.51009 42.1021 8.58379C41.994 8.65749 41.9016 8.75196 41.8303 8.86169C41.759 8.97143 41.7103 9.09425 41.6869 9.223C41.5339 10.023 41.3409 11.211 41.1009 12.697C39.4839 22.717 35.1859 49.332 25.2039 55.666C24.9878 55.8052 24.8334 56.022 24.7726 56.2717C24.7117 56.5215 24.7491 56.785 24.8769 57.008C21.5039 59.703 17.9379 61 14.6099 61C10.7969 61 7.58489 59.23 5.80089 56.146C3.17589 51.611 3.95889 44.93 7.94889 37.813C8.82189 36.256 9.01789 34.713 8.53289 33.227C8.18389 32.158 7.52089 31.281 6.80889 30.582C6.92589 30.585 7.04289 30.59 7.15689 30.59C10.0309 30.59 13.8189 29.936 17.5519 28.794C23.0919 27.1 27.5309 24.666 29.0319 22.561C29.9179 24.916 28.4609 27.581 26.1059 31.347C23.7389 35.134 21.2919 39.048 23.1539 42.952C23.6639 44.022 24.4249 44.182 24.8319 44.182C25.6029 44.182 26.4559 43.627 27.5689 41.963C27.6459 42.01 27.7269 42.051 27.8149 42.08C28.7349 42.393 29.8339 41.74 30.2699 40.623C30.6639 39.617 30.3799 38.586 29.6519 38.162C29.8239 37.799 30.0029 37.418 30.1859 37.016C31.0919 37.272 32.1449 36.633 32.5689 35.543C32.9739 34.51 32.6609 33.447 31.8839 33.049C32.0579 32.621 32.2379 32.175 32.4219 31.716C33.3399 32.022 34.4339 31.37 34.8689 30.257C35.3049 29.14 34.9109 27.982 33.9929 27.671L33.9869 27.67C35.2025 24.4285 36.3803 21.173 37.5199 17.904C38.3049 17.888 39.1069 17.296 39.4639 16.38C39.8479 15.397 39.5889 14.382 38.8949 13.942L38.9479 13.792L39.0489 13.497L39.2989 12.773C39.9469 12.603 40.5559 12.066 40.8549 11.302C41.1779 10.472 41.0439 9.623 40.5799 9.112C41.2119 7.344 41.8689 5.58 42.3669 4.442C42.9239 3.164 43.6609 3 44.2409 3C45.8269 3 47.8739 4.466 48.8559 5.17L49.0349 5.297C49.6889 5.762 50.9809 6.644 52.8779 7.92C52.8024 8.11346 52.6915 8.29116 52.5509 8.444C50.0339 6.706 47.5069 5.147 45.8019 5.147C44.7769 5.147 43.9249 6.016 43.0169 8.501Z" fill="#EEEEEE"/>
<path d="M16.8211 27.207C22.8111 25.374 27.1391 22.677 26.4911 21.179C25.8421 19.683 20.4601 19.953 14.4691 21.783C8.48105 23.616 4.15305 26.315 4.80105 27.811C5.44905 29.309 10.8321 29.037 16.8211 27.207Z" fill="#EEEEEE"/>
</svg>
