<svg width="65" height="58" viewBox="0 0 65 58" fill="none" xmlns="http://www.w3.org/2000/svg">
<path d="M61.3349 27.797C58.6422 16.9344 54.5899 11.1367 48.5786 9.55302C47.3151 9.22229 46.0043 9.05706 44.6875 9.06251C42.947 9.06251 41.4312 9.44087 39.8278 9.84188C37.8955 10.3256 35.7005 10.875 32.5 10.875C29.2995 10.875 27.1033 10.3267 25.1672 9.84302C23.5625 9.44087 22.048 9.06251 20.3125 9.06251C18.9509 9.0583 17.5951 9.223 16.2843 9.55188C10.3048 11.1288 6.25501 16.9242 3.52298 27.7902C0.585281 39.4831 2.03128 46.8656 7.57786 48.5784C8.33816 48.8175 9.13812 48.9409 9.94427 48.9432C13.744 48.9432 16.7908 46.1191 18.8729 43.807C21.2253 41.1902 23.9789 39.8626 32.5 39.8626C40.1109 39.8626 43.2606 40.7835 45.9812 43.807C47.6912 45.7079 49.3074 47.0378 50.9197 47.8749C53.0639 48.9874 55.2069 49.2343 57.2876 48.5965C60.5656 47.5985 62.4445 44.9602 62.8736 40.7529C63.1998 37.5267 62.6971 33.2888 61.3349 27.797ZM26.4063 27.1875H22.3438V30.8125C22.3438 31.2932 22.1298 31.7542 21.7488 32.0941C21.3679 32.4341 20.8512 32.625 20.3125 32.625C19.7738 32.625 19.2572 32.4341 18.8762 32.0941C18.4953 31.7542 18.2813 31.2932 18.2813 30.8125V27.1875H14.2188C13.6801 27.1875 13.1634 26.9965 12.7825 26.6566C12.4015 26.3167 12.1875 25.8557 12.1875 25.375C12.1875 24.8943 12.4015 24.4333 12.7825 24.0934C13.1634 23.7535 13.6801 23.5625 14.2188 23.5625H18.2813V19.9375C18.2813 19.4568 18.4953 18.9958 18.8762 18.6559C19.2572 18.316 19.7738 18.125 20.3125 18.125C20.8512 18.125 21.3679 18.316 21.7488 18.6559C22.1298 18.9958 22.3438 19.4568 22.3438 19.9375V23.5625H26.4063C26.945 23.5625 27.4617 23.7535 27.8426 24.0934C28.2235 24.4333 28.4375 24.8943 28.4375 25.375C28.4375 25.8557 28.2235 26.3167 27.8426 26.6566C27.4617 26.9965 26.945 27.1875 26.4063 27.1875ZM37.0703 27.6406C36.5682 27.6406 36.0773 27.5078 35.6597 27.2588C35.2422 27.0099 34.9167 26.656 34.7246 26.242C34.5324 25.828 34.4821 25.3725 34.5801 24.933C34.678 24.4935 34.9199 24.0898 35.275 23.773C35.63 23.4561 36.0825 23.2403 36.575 23.1529C37.0675 23.0655 37.578 23.1104 38.042 23.2818C38.506 23.4533 38.9025 23.7437 39.1815 24.1163C39.4605 24.4889 39.6094 24.9269 39.6094 25.375C39.6094 25.9759 39.3419 26.5522 38.8657 26.977C38.3896 27.4019 37.7437 27.6406 37.0703 27.6406ZM42.6563 32.625C42.1538 32.625 41.6627 32.492 41.245 32.2428C40.8273 31.9936 40.5019 31.6394 40.3099 31.2251C40.1179 30.8108 40.068 30.3549 40.1665 29.9153C40.265 29.4757 40.5074 29.072 40.8632 28.7553C41.2189 28.4387 41.6719 28.2234 42.1648 28.1366C42.6578 28.0498 43.1685 28.0955 43.6323 28.2679C44.0962 28.4402 44.4923 28.7315 44.7705 29.1048C45.0488 29.4781 45.1966 29.9167 45.1953 30.365C45.1937 30.9649 44.9254 31.5398 44.4494 31.9634C43.9734 32.3871 43.3286 32.625 42.6563 32.625ZM42.6563 22.6563C42.1541 22.6563 41.6632 22.5234 41.2457 22.2744C40.8281 22.0255 40.5027 21.6716 40.3105 21.2577C40.1183 20.8437 40.068 20.3881 40.166 19.9486C40.264 19.5091 40.5058 19.1054 40.8609 18.7886C41.216 18.4717 41.6684 18.256 42.1609 18.1685C42.6535 18.0811 43.164 18.126 43.6279 18.2975C44.0919 18.469 44.4884 18.7593 44.7674 19.1319C45.0464 19.5045 45.1953 19.9425 45.1953 20.3906C45.1953 20.9915 44.9278 21.5678 44.4517 21.9927C43.9755 22.4176 43.3297 22.6563 42.6563 22.6563ZM48.2422 27.6406C47.74 27.6406 47.2491 27.5078 46.8316 27.2588C46.414 27.0099 46.0886 26.656 45.8964 26.242C45.7043 25.828 45.654 25.3725 45.7519 24.933C45.8499 24.4935 46.0917 24.0898 46.4468 23.773C46.8019 23.4561 47.2543 23.2403 47.7469 23.1529C48.2394 23.0655 48.7499 23.1104 49.2139 23.2818C49.6778 23.4533 50.0744 23.7437 50.3534 24.1163C50.6324 24.4889 50.7813 24.9269 50.7813 25.375C50.7813 25.9759 50.5138 26.5522 50.0376 26.977C49.5614 27.4019 48.9156 27.6406 48.2422 27.6406Z" fill="#EEEEEE"/>
</svg>
