<svg width="56" height="56" viewBox="0 0 56 56" fill="none" xmlns="http://www.w3.org/2000/svg">
<circle cx="28" cy="28" r="22" fill="#C4C4C4" fill-opacity="0.4"/>
<path d="M28 0C33.1638 6.1578e-08 38.2271 1.42798 42.63 4.12608C47.0328 6.82417 50.6039 10.6873 52.9482 15.2883C55.2925 19.8893 56.3188 25.0489 55.9137 30.1969C55.5085 35.3448 53.6877 40.2804 50.6525 44.458C47.6173 48.6356 43.4859 51.8925 38.7151 53.8686C33.9444 55.8447 28.7201 56.4631 23.6198 55.6553C18.5196 54.8475 13.7421 52.645 9.81546 49.2914C5.88885 45.9377 2.96613 41.5636 1.37042 36.6525L5.4456 35.3284C6.79712 39.4879 9.27257 43.1927 12.5983 46.0331C15.924 48.8735 19.9704 50.7389 24.2901 51.4231C28.6099 52.1073 33.0347 51.5836 37.0754 49.9099C41.1161 48.2362 44.6152 45.4777 47.1859 41.9394C49.7567 38.4011 51.2988 34.2208 51.642 29.8607C51.9851 25.5006 51.1159 21.1305 49.1303 17.2336C47.1447 13.3367 44.1202 10.0648 40.3911 7.77955C36.662 5.49436 32.3736 4.2849 28 4.2849V0Z" fill="#3B5999"/>
</svg>
