<svg width="56" height="56" viewBox="0 0 56 56" fill="none" xmlns="http://www.w3.org/2000/svg">
<path d="M39.806 15H20.705C20.5484 14.9999 20.3934 15.0306 20.2487 15.0904C20.1041 15.1501 19.9726 15.2378 19.8618 15.3484C19.751 15.459 19.6631 15.5903 19.6031 15.7349C19.5431 15.8795 19.5121 16.0345 19.512 16.191V21.5L30.581 24.75L41 21.5V16.191C40.9998 16.0344 40.9688 15.8793 40.9087 15.7347C40.8487 15.5901 40.7607 15.4587 40.6498 15.3481C40.5389 15.2375 40.4073 15.1498 40.2625 15.0901C40.1177 15.0303 39.9626 14.9997 39.806 15Z" fill="#41A5EE"/>
<path d="M41 21.5H19.512V28L30.581 29.95L41 28V21.5Z" fill="#2B7CD3"/>
<path d="M19.512 28V34.5L29.93 35.8L41 34.5V28H19.512Z" fill="#185ABD"/>
<path d="M20.705 41H39.805C39.9617 41.0004 40.1169 40.9699 40.2618 40.9102C40.4067 40.8506 40.5384 40.7629 40.6494 40.6523C40.7604 40.5417 40.8485 40.4102 40.9087 40.2655C40.9688 40.1208 40.9998 39.9657 41 39.809V34.5H19.512V39.809C19.5121 39.9655 19.5431 40.1205 19.6031 40.2651C19.6631 40.4097 19.751 40.541 19.8618 40.6516C19.9726 40.7622 20.1041 40.8499 20.2487 40.9096C20.3934 40.9694 20.5484 41.0001 20.705 41Z" fill="#103F91"/>
<path opacity="0.1" d="M27.434 20.2H19.512V36.45H27.434C27.7496 36.4484 28.052 36.3225 28.2755 36.0996C28.4989 35.8766 28.6256 35.5746 28.628 35.259V21.391C28.6256 21.0753 28.4989 20.7733 28.2755 20.5503C28.052 20.3274 27.7496 20.2015 27.434 20.2Z" fill="black"/>
<path opacity="0.2" d="M26.783 20.85H19.512V37.1H26.783C27.0986 37.0984 27.401 36.9725 27.6245 36.7496C27.8479 36.5267 27.9746 36.2246 27.977 35.909V22.041C27.9746 21.7253 27.8479 21.4233 27.6245 21.2004C27.401 20.9774 27.0986 20.8515 26.783 20.85Z" fill="black"/>
<path opacity="0.2" d="M26.783 20.85H19.512V35.8H26.783C27.0986 35.7984 27.401 35.6725 27.6245 35.4496C27.8479 35.2267 27.9746 34.9246 27.977 34.609V22.041C27.9746 21.7253 27.8479 21.4233 27.6245 21.2004C27.401 20.9774 27.0986 20.8515 26.783 20.85Z" fill="black"/>
<path opacity="0.2" d="M26.132 20.85H19.512V35.8H26.132C26.4476 35.7984 26.75 35.6725 26.9735 35.4496C27.1969 35.2267 27.3236 34.9246 27.326 34.609V22.041C27.3236 21.7253 27.1969 21.4233 26.9735 21.2004C26.75 20.9774 26.4476 20.8515 26.132 20.85Z" fill="black"/>
<path d="M14.194 20.85H26.132C26.4482 20.8497 26.7516 20.975 26.9755 21.1983C27.1994 21.4217 27.3255 21.7247 27.326 22.041V33.959C27.3255 34.2752 27.1994 34.5783 26.9755 34.8016C26.7516 35.0249 26.4482 35.1502 26.132 35.15H14.194C14.0374 35.1502 13.8822 35.1196 13.7375 35.0599C13.5927 35.0002 13.4611 34.9125 13.3502 34.8019C13.2393 34.6913 13.1513 34.5599 13.0912 34.4153C13.0311 34.2707 13.0001 34.1156 13 33.959V22.041C13.0001 21.8844 13.0311 21.7293 13.0912 21.5847C13.1513 21.44 13.2393 21.3087 13.3502 21.198C13.4611 21.0874 13.5927 20.9998 13.7375 20.94C13.8822 20.8803 14.0374 20.8497 14.194 20.85Z" fill="url(#paint0_linear_385_48)"/>
<path d="M17.8999 29.988C17.9229 30.172 17.9389 30.332 17.9459 30.469H17.9739C17.9839 30.339 18.0059 30.182 18.0389 29.999C18.0719 29.816 18.1009 29.661 18.1279 29.534L19.3829 24.127H21.0069L22.3069 29.453C22.3827 29.7824 22.4368 30.1165 22.4689 30.453H22.4909C22.5148 30.1254 22.5599 29.7997 22.6259 29.478L23.6649 24.12H25.1419L23.3179 31.868H21.5909L20.3539 26.742C20.3179 26.594 20.2773 26.4013 20.2319 26.164C20.1866 25.9267 20.1586 25.7533 20.1479 25.644H20.1269C20.1129 25.77 20.0849 25.957 20.0429 26.205C20.0009 26.454 19.9679 26.637 19.9429 26.757L18.7799 31.871H17.0239L15.1899 24.127H16.6899L17.8209 29.545C17.8547 29.6912 17.8811 29.8391 17.8999 29.988Z" fill="white"/>
<circle cx="28" cy="28" r="22" fill="#C4C4C4" fill-opacity="0.4"/>
<path d="M16.6114 2.42073C10.2724 5.24303 5.20713 10.3186 2.39768 16.6633C-0.411762 23.008 -0.765257 30.1699 1.40573 36.7604C3.57672 43.351 8.11753 48.9006 14.1478 52.3334C20.1781 55.7663 27.2682 56.8377 34.0435 55.34C40.8189 53.8423 46.7967 49.8822 50.8182 44.2274C54.8396 38.5727 56.6182 31.6261 55.8089 24.7346C54.9997 17.843 51.6604 11.4974 46.4384 6.92807C41.2164 2.35871 34.4837 -0.10889 27.5457 0.00368522L27.6152 4.28802C33.4915 4.19267 39.1938 6.28265 43.6167 10.1528C48.0396 14.0229 50.8679 19.3974 51.5533 25.2343C52.2387 31.0712 50.7323 36.9547 47.3263 41.7441C43.9202 46.5335 38.8572 49.8876 33.1187 51.1561C27.3802 52.4246 21.3751 51.5171 16.2676 48.6096C11.1602 45.7021 7.31427 41.0018 5.47551 35.4198C3.63675 29.8378 3.93615 23.7719 6.31566 18.3982C8.69517 13.0244 12.9853 8.72558 18.3542 6.33518L16.6114 2.42073Z" fill="#3B5999"/>
<defs>
<linearGradient id="paint0_linear_385_48" x1="15.494" y1="19.914" x2="24.832" y2="36.086" gradientUnits="userSpaceOnUse">
<stop stop-color="#2368C4"/>
<stop offset="0.5" stop-color="#1A5DBE"/>
<stop offset="1" stop-color="#1146AC"/>
</linearGradient>
</defs>
</svg>
